<svg width="1440" height="678" viewBox="0 0 1440 678" fill="none" xmlns="http://www.w3.org/2000/svg">
<path d="M-1.57356e-05 0C-1.57356e-05 0 375.63 0 671.353 0C967.076 0 1444 0 1444 0V678C1444 678 1375 678 642 678C-91 678 -1.57356e-05 678 -1.57356e-05 678V0Z" fill="#D0E4C3"/>
<path d="M75.3783 114.867C93.7666 109.32 111.406 125.3 107.129 143.631L76.334 275.615C72.057 293.947 49.0715 300.88 34.9602 288.096L-66.6414 196.05C-80.7528 183.266 -75.4065 160.352 -57.0181 154.805L75.3783 114.867Z" stroke="#819177" stroke-opacity="0.2" stroke-width="25"/>
<path d="M1353.82 110.4C1354.26 88.4561 1378.7 74.5332 1397.8 85.3393L1535.36 163.143C1554.46 173.949 1553.9 201.379 1534.35 212.517L1393.6 292.713C1374.05 303.851 1350.16 290.344 1350.61 268.399L1353.82 110.4Z" stroke="#819177" stroke-opacity="0.2" stroke-width="25"/>
<path d="M1357.18 476.971C1346.71 460.823 1357.65 439.397 1376.87 438.405L1515.25 431.265C1534.47 430.274 1547.55 450.459 1538.8 467.6L1475.79 591.01C1467.04 608.151 1443.02 609.39 1432.55 593.242L1357.18 476.971Z" stroke="#819177" stroke-opacity="0.2" stroke-width="25"/>
</svg>
