<svg width="210" height="59" viewBox="0 0 210 59" fill="none" xmlns="http://www.w3.org/2000/svg">
<path d="M89.1304 22.4348V19.8696H86.5652V17.3043H84V9.60869H86.5652V7.04348H89.1304V4.47826H101.957V7.04348H91.6957V9.60869H89.1304V17.3043H91.6957V19.8696H96.8261V14.7391H94.2609V12.1739H101.957V22.4348H89.1304ZM104.932 22.4348V9.60869H107.497V7.04348H110.063V4.47826H117.758V7.04348H120.323V9.60869H122.889V22.4348H117.758V17.3043H110.063V22.4348H104.932ZM110.063 14.7391H117.758V9.60869H115.193V7.04348H112.628V9.60869H110.063V14.7391ZM125.864 22.4348V4.47826H130.995V7.04348H133.56V9.60869H136.125V7.04348H138.69V4.47826H143.821V22.4348H138.69V12.1739H136.125V17.3043H133.56V12.1739H130.995V22.4348H125.864ZM146.797 22.4348V4.47826H164.753V7.04348H151.927V12.1739H162.188V14.7391H151.927V19.8696H164.753V22.4348H146.797ZM86.5652 52.4348V49.8696H91.6957V37.0435H86.5652V34.4783H101.957V37.0435H96.8261V49.8696H101.957V52.4348H86.5652ZM104.932 52.4348V34.4783H110.063V37.0435H112.628V39.6087H115.193V42.1739H117.758V34.4783H122.889V52.4348H117.758V47.3043H115.193V44.7391H112.628V42.1739H110.063V52.4348H104.932ZM133.56 52.4348V49.8696H130.995V47.3043H128.43V44.7391H125.864V34.4783H130.995V42.1739H133.56V44.7391H136.125V42.1739H138.69V34.4783H143.821V44.7391H141.256V47.3043H138.69V49.8696H136.125V52.4348H133.56ZM146.797 52.4348V34.4783H164.753V37.0435H151.927V42.1739H162.188V44.7391H151.927V49.8696H164.753V52.4348H146.797ZM170.294 52.4348V49.8696H167.729V47.3043H172.859V49.8696H180.555V44.7391H170.294V42.1739H167.729V37.0435H170.294V34.4783H183.12V37.0435H185.685V39.6087H180.555V37.0435H172.859V42.1739H183.12V44.7391H185.685V49.8696H183.12V52.4348H170.294ZM196.357 52.4348V37.0435H191.226V34.4783H206.617V37.0435H201.487V52.4348H196.357Z" fill="white"/>
<path fill-rule="evenodd" clip-rule="evenodd" d="M17.1963 25.0378L23.0595 29.7295L17.1963 34.4211C16.2213 35.2015 14.816 34.4722 14.816 33.1859V26.2732C14.816 24.9867 16.2213 24.2575 17.1963 25.0378ZM55.7275 26.2732V33.1859C55.7275 34.4722 54.3222 35.2015 53.3472 34.4211L47.484 29.7295L53.3472 25.0378C54.3222 24.2575 55.7275 24.9867 55.7275 26.2732ZM49.1205 8.87585L35.2718 19.9573L21.423 8.87585C19.4492 7.29635 17.1664 6.36221 14.816 6.08635C12.332 5.79461 9.77246 6.23911 7.42041 7.45949C2.84339 9.83478 0 14.6373 0 19.9929V39.466C0 44.8217 2.84339 49.6242 7.42041 51.9994C9.77246 53.2198 12.332 53.6643 14.816 53.3726C17.1664 53.0967 19.4492 52.1626 21.423 50.5831L35.2718 39.5016L49.1205 50.5831C51.0941 52.1626 53.3771 53.0967 55.7275 53.3726C58.2115 53.6643 60.771 53.2198 63.1229 51.9994C67.6999 49.6242 70.5435 44.8217 70.5435 39.466V19.9929C70.5435 14.6373 67.6999 9.83478 63.1229 7.45949C60.771 6.23911 58.2115 5.79461 55.7275 6.08635C53.3771 6.36221 51.0941 7.29635 49.1205 8.87585Z" fill="white"/>
<path fill-rule="evenodd" clip-rule="evenodd" d="M14.8157 26.2732C14.8157 24.987 16.2212 24.2577 17.196 25.0378L23.0594 29.7295L35.2715 19.9576L21.4227 8.87589C19.4489 7.2966 17.1661 6.36226 14.8157 6.08661V26.2732Z" fill="url(#paint0_linear_502_139)"/>
<path fill-rule="evenodd" clip-rule="evenodd" d="M49.1206 50.5833C51.0943 52.1626 53.3772 53.0967 55.7277 53.3726V33.1859C55.7277 34.4722 54.3223 35.2015 53.3471 34.4211L47.484 29.7295L35.272 39.5016L49.1206 50.5833Z" fill="url(#paint1_linear_502_139)"/>
<defs>
<linearGradient id="paint0_linear_502_139" x1="32.473" y1="31.3795" x2="18.2019" y2="20.7701" gradientUnits="userSpaceOnUse">
<stop stop-color="white"/>
<stop offset="1" stop-color="white"/>
</linearGradient>
<linearGradient id="paint1_linear_502_139" x1="47.4858" y1="45.967" x2="33.4667" y2="35.2403" gradientUnits="userSpaceOnUse">
<stop stop-color="white"/>
<stop offset="1" stop-color="white"/>
</linearGradient>
</defs>
</svg>
