<svg width="134" height="52" viewBox="0 0 134 52" fill="none" xmlns="http://www.w3.org/2000/svg">
<path d="M57.4327 40.7728V39.249H60.4804V31.63H57.4327V30.1062H66.5756V31.63H63.528V39.249H66.5756V40.7728H57.4327ZM68.0994 40.7728V30.1062H71.147V31.63H72.6708V33.1538H74.1946V34.6776H75.7185V30.1062H78.7661V40.7728H75.7185V37.7252H74.1946V36.2014H72.6708V34.6776H71.147V40.7728H68.0994ZM84.8613 40.7728V39.249H83.3375V37.7252H81.8137V36.2014H80.2899V30.1062H83.3375V34.6776H84.8613V36.2014H86.3851V34.6776H87.9089V30.1062H90.9566V36.2014H89.4327V37.7252H87.9089V39.249H86.3851V40.7728H84.8613ZM92.4804 40.7728V30.1062H103.147V31.63H95.528V34.6776H101.623V36.2014H95.528V39.249H103.147V40.7728H92.4804ZM106.195 40.7728V39.249H104.671V37.7252H107.718V39.249H112.29V36.2014H106.195V34.6776H104.671V31.63H106.195V30.1062H113.814V31.63H115.338V33.1538H112.29V31.63H107.718V34.6776H113.814V36.2014H115.338V39.249H113.814V40.7728H106.195ZM121.433 40.7728V31.63H118.385V30.1062H127.528V31.63H124.48V40.7728H121.433Z" fill="white"/>
<path d="M68.3599 20.4762V18.9524H66.8361V17.4286H65.3123V12.8571H66.8361V11.3333H68.3599V9.80952H75.9789V11.3333H69.8837V12.8571H68.3599V17.4286H69.8837V18.9524H72.9313V15.9048H71.4075V14.381H75.9789V20.4762H68.3599ZM77.5027 20.4762V12.8571H79.0265V11.3333H80.5504V9.80952H85.1218V11.3333H86.6456V12.8571H88.1694V20.4762H85.1218V17.4286H80.5504V20.4762H77.5027ZM80.5504 15.9048H85.1218V12.8571H83.598V11.3333H82.0742V12.8571H80.5504V15.9048ZM89.6932 20.4762V9.80952H92.7408V11.3333H94.2646V12.8571H95.7884V11.3333H97.3123V9.80952H100.36V20.4762H97.3123V14.381H95.7884V17.4286H94.2646V14.381H92.7408V20.4762H89.6932ZM101.884 20.4762V9.80952H112.55V11.3333H104.931V14.381H111.027V15.9048H104.931V18.9524H112.55V20.4762H101.884Z" fill="white"/>
<path fill-rule="evenodd" clip-rule="evenodd" d="M10.4786 22.0113L14.0514 25.3263L10.4786 28.6413C9.88451 29.1927 9.02817 28.6774 9.02817 27.7685V22.8842C9.02817 21.9752 9.88451 21.4599 10.4786 22.0113ZM33.9578 22.8842V27.7685C33.9578 28.6774 33.1014 29.1927 32.5073 28.6413L28.9346 25.3263L32.5073 22.0113C33.1014 21.4599 33.9578 21.9752 33.9578 22.8842ZM29.9318 10.5916L21.493 18.4215L13.0542 10.5916C11.8514 9.47556 10.4604 8.81552 9.02817 8.62061C7.51455 8.41447 5.95489 8.72855 4.52166 9.59084C1.73263 11.2692 0 14.6625 0 18.4467V32.2059C0 35.9901 1.73263 39.3834 4.52166 41.0617C5.95489 41.924 7.51455 42.2381 9.02817 42.032C10.4604 41.8371 11.8514 41.177 13.0542 40.061L21.493 32.231L29.9318 40.061C31.1344 41.177 32.5255 41.8371 33.9578 42.032C35.4714 42.2381 37.0311 41.924 38.4642 41.0617C41.2532 39.3834 42.986 35.9901 42.986 32.2059V18.4467C42.986 14.6625 41.2532 11.2692 38.4642 9.59084C37.0311 8.72855 35.4714 8.41447 33.9578 8.62061C32.5255 8.81552 31.1344 9.47556 29.9318 10.5916Z" fill="#49CE98"/>
<path fill-rule="evenodd" clip-rule="evenodd" d="M9.02783 22.8842C9.02783 21.9753 9.8843 21.4601 10.4783 22.0113L14.0512 25.3263L21.4927 18.4217L13.0539 10.5916C11.8511 9.47572 10.4601 8.81553 9.02783 8.62077V22.8842Z" fill="url(#paint0_linear_155_4)"/>
<path fill-rule="evenodd" clip-rule="evenodd" d="M29.9319 40.0611C31.1345 41.177 32.5257 41.8371 33.9579 42.032V27.7686C33.9579 28.6774 33.1016 29.1927 32.5073 28.6413L28.9346 25.3263L21.4932 32.2311L29.9319 40.0611Z" fill="url(#paint1_linear_155_4)"/>
<defs>
<linearGradient id="paint0_linear_155_4" x1="19.7874" y1="26.4922" x2="10.2184" y2="20.3572" gradientUnits="userSpaceOnUse">
<stop stop-color="#39FFAE"/>
<stop offset="1" stop-color="#39FFAE"/>
</linearGradient>
<linearGradient id="paint1_linear_155_4" x1="28.9357" y1="36.7994" x2="19.5002" y2="30.5732" gradientUnits="userSpaceOnUse">
<stop stop-color="#39FFAE"/>
<stop offset="1" stop-color="#39FFAE"/>
</linearGradient>
</defs>
</svg>
