<svg width="197" height="49" viewBox="0 0 197 49" fill="none" xmlns="http://www.w3.org/2000/svg">
<path d="M76.1304 21.4348V18.8696H73.5652V16.3043H71V8.60869H73.5652V6.04348H76.1304V3.47826H88.9565V6.04348H78.6957V8.60869H76.1304V16.3043H78.6957V18.8696H83.8261V13.7391H81.2609V11.1739H88.9565V21.4348H76.1304ZM91.9322 21.4348V8.60869H94.4974V6.04348H97.0626V3.47826H104.758V6.04348H107.323V8.60869H109.889V21.4348H104.758V16.3043H97.0626V21.4348H91.9322ZM97.0626 13.7391H104.758V8.60869H102.193V6.04348H99.6278V8.60869H97.0626V13.7391ZM112.864 21.4348V3.47826H117.995V6.04348H120.56V8.60869H123.125V6.04348H125.69V3.47826H130.821V21.4348H125.69V11.1739H123.125V16.3043H120.56V11.1739H117.995V21.4348H112.864ZM133.797 21.4348V3.47826H151.753V6.04348H138.927V11.1739H149.188V13.7391H138.927V18.8696H151.753V21.4348H133.797ZM73.5652 42.4348V39.8696H78.6957V27.0435H73.5652V24.4783H88.9565V27.0435H83.8261V39.8696H88.9565V42.4348H73.5652ZM91.9322 42.4348V24.4783H97.0626V27.0435H99.6278V29.6087H102.193V32.1739H104.758V24.4783H109.889V42.4348H104.758V37.3043H102.193V34.7391H99.6278V32.1739H97.0626V42.4348H91.9322ZM120.56 42.4348V39.8696H117.995V37.3043H115.43V34.7391H112.864V24.4783H117.995V32.1739H120.56V34.7391H123.125V32.1739H125.69V24.4783H130.821V34.7391H128.256V37.3043H125.69V39.8696H123.125V42.4348H120.56ZM133.797 42.4348V24.4783H151.753V27.0435H138.927V32.1739H149.188V34.7391H138.927V39.8696H151.753V42.4348H133.797ZM157.294 42.4348V39.8696H154.729V37.3043H159.859V39.8696H167.555V34.7391H157.294V32.1739H154.729V27.0435H157.294V24.4783H170.12V27.0435H172.685V29.6087H167.555V27.0435H159.859V32.1739H170.12V34.7391H172.685V39.8696H170.12V42.4348H157.294ZM183.357 42.4348V27.0435H178.226V24.4783H193.617V27.0435H188.487V42.4348H183.357Z" fill="white"/>
<path fill-rule="evenodd" clip-rule="evenodd" d="M15.1137 28.1577L20.2667 24.5L15.1137 20.8423C14.2567 20.2339 13.0216 20.8025 13.0216 21.8053V27.1946C13.0216 28.1975 14.2567 28.7661 15.1137 28.1577V28.1577ZM48.9784 27.1946V21.8053C48.9784 20.8025 47.7433 20.2339 46.8863 20.8423L41.7333 24.5L46.8863 28.1577C47.7433 28.7661 48.9784 28.1975 48.9784 27.1946ZM43.1715 40.7579L31.0001 32.1185L18.8285 40.7579C17.0937 41.9893 15.0874 42.7176 13.0216 42.9326C10.8385 43.1601 8.58892 42.8135 6.52173 41.8621C2.49903 40.0103 0 36.2662 0 32.0908V16.9092C0 12.7338 2.49903 8.9897 6.52173 7.13788C8.58892 6.18645 10.8385 5.83991 13.0216 6.06736C15.0874 6.28242 17.0937 7.0107 18.8285 8.2421L31.0001 16.8815L43.1715 8.2421C44.9061 7.0107 46.9126 6.28242 48.9784 6.06736C51.1615 5.83991 53.4111 6.18645 55.4781 7.13788C59.5008 8.9897 62 12.7338 62 16.9092V32.0908C62 36.2662 59.5008 40.0103 55.4781 41.8621C53.4111 42.8135 51.1615 43.1601 48.9784 42.9326C46.9126 42.7176 44.9061 41.9893 43.1715 40.7579Z" fill="white"/>
</svg>
